<?xml version="1.0" encoding="UTF-8"?>
<svg version="1.1" xmlns="http://www.w3.org/2000/svg" width="2000" height="1500">
<path d="M0 0 C660 0 1320 0 2000 0 C2000 495 2000 990 2000 1500 C1340 1500 680 1500 0 1500 C0 1005 0 510 0 0 Z " fill="#FEFEFE" transform="translate(0,0)"/>
<path d="M0 0 C1.56453415 0.00090637 1.56453415 0.00090637 3.16067505 0.00183105 C18.55777137 0.02605356 33.83493848 0.18260328 49.125 2.1875 C50.11322754 2.31640625 51.10145508 2.4453125 52.11962891 2.578125 C81.58302421 6.60412113 122.83847532 15.29310567 142.125 40.1875 C152.28677472 55.45792649 156.3664606 71.26370566 159.125 89.1875 C159.30369629 90.30874268 159.48239258 91.42998535 159.66650391 92.58520508 C160.1082164 96.05563521 160.25427476 99.36723537 160.2578125 102.86328125 C160.25910156 104.10400391 160.26039062 105.34472656 160.26171875 106.62304688 C160.25785156 107.90244141 160.25398438 109.18183594 160.25 110.5 C160.25580078 112.40168945 160.25580078 112.40168945 160.26171875 114.34179688 C160.25535812 120.48298889 160.06922601 126.47988225 159.36572266 132.57836914 C158.96077434 136.96749958 158.92758238 141.36428317 158.83447266 145.76928711 C158.38539575 166.93171189 157.57899733 188.54776639 153.5625 209.375 C151.04814156 222.46019525 150.14197818 235.54695729 149.921875 248.85546875 C149.90629547 249.71979019 149.89071594 250.58411163 149.87466431 251.47462463 C149.79922176 255.81617054 149.74593676 260.15611867 149.72998047 264.49829102 C149.52887422 285.08624381 145.25322039 305.76223796 132.125 322.1875 C131.64289063 322.83203125 131.16078125 323.4765625 130.6640625 324.140625 C124.48991752 331.98622359 117.57438629 335.68734559 107.70507812 336.88256836 C106.50302734 337.0038208 105.30097656 337.12507324 104.0625 337.25 C102.06549163 337.4830256 100.06848875 337.71610262 98.07168579 337.95088196 C95.92081225 338.20042092 93.76892411 338.4391796 91.61669922 338.67675781 C87.03065263 339.18962059 82.45491611 339.77211298 77.87890625 340.3671875 C59.58679967 342.73655523 41.27457984 344.88369481 22.9375 346.875 C21.99511475 346.97755096 21.05272949 347.08010193 20.08178711 347.1857605 C13.76468004 347.87094387 7.44582987 348.5375726 1.125 349.1875 C0.23704742 349.27920471 -0.65090515 349.37090942 -1.56576538 349.46539307 C-67.07782773 356.16869029 -133.73077968 355.51477162 -199.52952547 355.36281482 C-207.9490084 355.34392334 -216.36848892 355.33843967 -224.78798971 355.3334735 C-239.84166431 355.32436099 -254.89531619 355.30709636 -269.94897461 355.28344727 C-270.83716319 355.28205395 -271.72535178 355.28066064 -272.64045516 355.2792251 C-273.5297103 355.27782957 -274.41896544 355.27643404 -275.33516771 355.27499622 C-287.99712446 355.25514272 -300.65908193 355.23732262 -313.32104492 355.22192383 C-314.21625855 355.22083298 -315.11147218 355.21974213 -316.0338135 355.21861822 C-331.08912957 355.20044628 -346.14444795 355.18655353 -361.19977027 355.17475218 C-369.57207495 355.16794818 -377.94436304 355.15861005 -386.31665611 355.14290047 C-428.83087858 355.01675618 -428.83087858 355.01675618 -471.33911133 355.62670898 C-472.15224836 355.64630051 -472.96538539 355.66589203 -473.80316293 355.68607724 C-481.93539284 355.89074047 -490.05904613 356.19030162 -498.18466371 356.5764935 C-510.73558999 357.16628038 -523.25394846 357.33628338 -535.81738281 357.33276367 C-538.00307267 357.33576624 -540.18876201 357.33917123 -542.37445068 357.34294128 C-548.22847818 357.35165939 -554.08249102 357.35411375 -559.93652439 357.35475707 C-563.59927328 357.35547288 -567.26201856 357.35761681 -570.92476654 357.36025429 C-583.71449517 357.36945678 -596.50421348 357.37359431 -609.29394531 357.37280273 C-621.20669305 357.37219854 -633.11939601 357.38282992 -645.03213239 357.3985464 C-655.28903581 357.41159557 -665.54592451 357.41698796 -675.80283618 357.41634732 C-681.91767894 357.4160922 -688.03248152 357.41895333 -694.14731598 357.42952538 C-699.87667086 357.43916573 -705.60594668 357.43931371 -711.33530426 357.43200874 C-713.44006464 357.43095886 -715.54482987 357.43334952 -717.64958191 357.4393692 C-720.51349174 357.44703306 -723.37712441 357.44248234 -726.24102783 357.43473816 C-727.08039108 357.43988172 -727.91975432 357.44502529 -728.78455281 357.45032471 C-732.67126974 357.42696287 -734.56531712 357.39395526 -737.875 355.1875 C-743.24189849 354.80604007 -743.24189849 354.80604007 -748.328125 356.1875 C-757.05889767 359.61553344 -771.17980931 357.0858969 -779.875 354.1875 C-781.74615615 354.04140372 -783.62337459 353.96659497 -785.5 353.9375 C-786.48226562 353.91171875 -787.46453125 353.8859375 -788.4765625 353.859375 C-791.45258347 354.14671496 -793.46180763 354.67223992 -796.2265625 355.67578125 C-800.78743726 357.28600827 -804.81155094 357.68708232 -809.625 357.625 C-810.43646484 357.62177734 -811.24792969 357.61855469 -812.08398438 357.61523438 C-818.35066318 357.47640039 -824.25588947 356.49035518 -830.375 355.1875 C-843.5985315 352.37408685 -857.05271781 351.12676286 -869.875 356.1875 C-871.20345837 356.53976019 -872.53572647 356.87889782 -873.875 357.1875 C-875.72104058 354.90192595 -877.07593563 352.77725642 -878.375 350.125 C-880.07436072 346.65211975 -880.07436072 346.65211975 -882.875 344.1875 C-886.35192081 344.28147083 -887.98969563 345.26635324 -890.875 347.25 C-893.9864613 349.25948542 -895.27760322 349.61072315 -898.875 349.1875 C-898.545 351.8275 -898.215 354.4675 -897.875 357.1875 C-900.0625 357.5625 -900.0625 357.5625 -902.875 357.1875 C-907.81800271 352.49798461 -910.96837276 346.30040677 -913.875 340.1875 C-913.875 339.5275 -913.875 338.8675 -913.875 338.1875 C-918.66808342 337.72227707 -918.66808342 337.72227707 -922.8125 339.6875 C-923.163125 340.1825 -923.51375 340.6775 -923.875 341.1875 C-922.225 341.5175 -920.575 341.8475 -918.875 342.1875 C-918.25 344.0625 -918.25 344.0625 -917.875 346.1875 C-920.88117269 349.19367269 -923.69881598 348.78335316 -927.875 349.1875 C-928.308125 350.8890625 -928.308125 350.8890625 -928.75 352.625 C-929.12125 353.800625 -929.4925 354.97625 -929.875 356.1875 C-933.38387592 357.94193796 -937.0456282 357.75170212 -940.875 357.1875 C-943.1171875 356.0703125 -943.1171875 356.0703125 -945.3125 354.6875 C-950.16192052 351.64590232 -954.28490011 351.66233404 -959.875 352.1875 C-959.545 349.5475 -959.215 346.9075 -958.875 344.1875 C-960.271478 344.64386536 -961.6671508 345.10269488 -963.0625 345.5625 C-963.83980469 345.81773437 -964.61710937 346.07296875 -965.41796875 346.3359375 C-967.90531515 347.16232069 -967.90531515 347.16232069 -970.36328125 348.2734375 C-977.53871997 350.88471691 -985.89494118 349.01635608 -993.21591187 347.77992249 C-1006.28833198 345.66344009 -1019.44398086 344.4931801 -1032.6484375 343.59765625 C-1033.61035381 343.53238298 -1034.57227013 343.46710972 -1035.56333542 343.39985847 C-1064.35478742 341.51378078 -1093.21524478 341.69440994 -1122.05523682 341.63452148 C-1133.14687266 341.61141049 -1144.23844484 341.57669251 -1155.32997453 341.52269894 C-1158.78316902 341.50643228 -1162.23626794 341.49412524 -1165.68950272 341.49246025 C-1189.99138415 341.47476064 -1214.16283977 340.34768399 -1238.25 337 C-1239.015401 336.8955658 -1239.780802 336.79113159 -1240.56939697 336.68353271 C-1268.60706969 332.81351573 -1296.69927923 326.08986355 -1322.875 315.1875 C-1322.40791866 311.33810551 -1322.06529541 308.79985174 -1319.3125 306 C-1316.54753473 303.42995025 -1316.54753473 303.42995025 -1316.875 300.1875 C-1317.844375 299.671875 -1318.81375 299.15625 -1319.8125 298.625 C-1322.875 296.1875 -1322.875 296.1875 -1323.25 294.234375 C-1323.270625 293.45578125 -1323.29125 292.6771875 -1323.3125 291.875 C-1323.50252475 286.04469522 -1325.70780718 281.75451188 -1328.43725586 276.7175293 C-1330.8968887 271.96598035 -1331.27344445 268.54124661 -1330.875 263.1875 C-1329.875 260.1875 -1329.875 260.1875 -1328.875 258.1875 C-1329.37 257.836875 -1329.865 257.48625 -1330.375 257.125 C-1332.12272901 254.86751669 -1332.52963547 253.18875542 -1332.4453125 250.33984375 C-1331.39696078 246.3833931 -1328.71951452 243.25023509 -1326.421875 239.9140625 C-1324.22696236 236.04525183 -1324.55873906 233.53608792 -1324.875 229.1875 C-1321.79808234 227.13622156 -1320.93855001 226.91489128 -1317.42578125 226.7734375 C-1316.57822266 226.73476563 -1315.73066406 226.69609375 -1314.85742188 226.65625 C-1313.53581055 226.60984375 -1313.53581055 226.60984375 -1312.1875 226.5625 C-1311.29482422 226.52382813 -1310.40214844 226.48515625 -1309.48242188 226.4453125 C-1307.2801538 226.35109782 -1305.07789278 226.26548412 -1302.875 226.1875 C-1302.62613037 225.65350586 -1302.37726074 225.11951172 -1302.12084961 224.56933594 C-1298.8209685 217.69608132 -1295.31127414 213.21106364 -1288.203125 209.96875 C-1278.11602689 206.51927604 -1267.40753739 205.49051623 -1256.875 204.1875 C-1256.07787598 204.08743652 -1255.28075195 203.98737305 -1254.45947266 203.88427734 C-1252.59815416 203.65064075 -1250.73660419 203.41884919 -1248.875 203.1875 C-1249.47828125 202.24390625 -1250.0815625 201.3003125 -1250.703125 200.328125 C-1257.3734234 189.7012945 -1264.31047706 178.24730455 -1261.875 165.1875 C-1260.17382187 160.68380299 -1258.14215134 156.43166129 -1255.875 152.1875 C-1260.13388839 149.61235818 -1264.93381977 149.21585598 -1269.76757812 148.5078125 C-1275.85734388 147.49381177 -1281.95283916 145.26323756 -1285.875 140.1875 C-1285.875 139.5275 -1285.875 138.8675 -1285.875 138.1875 C-1289.505 138.5175 -1293.135 138.8475 -1296.875 139.1875 C-1297.225625 137.599375 -1297.57625 136.01125 -1297.9375 134.375 C-1300.55026452 124.85183961 -1306.43559749 117.57065154 -1312.578125 110.0234375 C-1319.75497943 101.16221928 -1326.6221023 92.26895356 -1332.125 82.25 C-1332.507771 81.57702881 -1332.89054199 80.90405762 -1333.28491211 80.21069336 C-1335.8926923 75.24108089 -1336.65415642 70.77692211 -1335.875 65.1875 C-1331.93796292 56.82129621 -1323.63560597 52.55437691 -1315.34765625 49.33984375 C-1292.31821771 41.69790408 -1267.26600086 40.24310494 -1243.21105957 38.50897217 C-1233.35350572 37.79246253 -1223.63165017 36.8868686 -1213.875 35.25 C-1185.54668144 30.50968563 -1156.77807413 28.56276452 -1128.15380859 26.49902344 C-1124.4829968 26.23361469 -1120.81359619 25.9527353 -1117.14453125 25.6640625 C-1078.89601536 22.67377341 -1040.59028553 20.6830971 -1002.25238037 19.30859375 C-998.72501525 19.1821224 -995.19771428 19.05394191 -991.67041016 18.92578125 C-985.32014727 18.69628823 -978.96968315 18.47315441 -972.61904907 18.25418091 C-970.21600452 18.17126867 -967.81298667 18.08757638 -965.41000366 18.00289917 C-925.83016273 16.61908345 -886.25161108 16.02536704 -846.64903903 16.14472961 C-841.22286686 16.15975609 -835.79668345 16.16812475 -830.37049866 16.17721558 C-822.20640861 16.19144553 -814.04232672 16.20765764 -805.87824565 16.22635099 C-789.72832848 16.26332223 -773.57841405 16.28675474 -757.4284668 16.30584717 C-754.85406207 16.30895696 -752.27965735 16.31207463 -749.70525265 16.31520009 C-745.80583644 16.31992532 -741.90642022 16.32464384 -738.00700396 16.32933249 C-723.38992112 16.34696371 -708.77284054 16.36604024 -694.15576172 16.38671875 C-693.15763385 16.38812377 -693.15763385 16.38812377 -692.13934179 16.38955718 C-672.74271236 16.41695418 -653.34613131 16.45477758 -633.94953544 16.50044706 C-601.52887423 16.57657354 -569.10825413 16.63035135 -536.6875 16.640625 C-534.80405409 16.64127238 -534.80405409 16.64127238 -532.88255876 16.64193285 C-461.03302166 16.66240599 -389.36648876 16.08894064 -317.6208204 11.95345926 C-300.35476959 10.95870501 -283.07717305 10.28004353 -265.79581261 9.61416245 C-258.80866214 9.34423173 -251.82234646 9.05401046 -244.8359375 8.765625 C-243.66424578 8.71789948 -242.49255405 8.67017395 -241.28535652 8.6210022 C-235.71496108 8.39227834 -230.15933752 8.07716776 -224.59814453 7.68261719 C-216.51624029 7.12917268 -208.43986437 6.88437725 -200.34375 6.6875 C-198.76605751 6.64708741 -197.18837005 6.60647828 -195.61068726 6.56568909 C-191.40360663 6.45789542 -187.19642945 6.35443101 -182.98921967 6.25181961 C-180.3564044 6.18704248 -177.72363875 6.12052195 -175.09088135 6.05343628 C-156.71538275 5.58573391 -138.34131827 5.15638127 -119.9609375 4.94140625 C-119.26747475 4.93317715 -118.57401199 4.92494804 -117.85953522 4.91646957 C-115.13230552 4.88414249 -112.40507202 4.85214518 -109.67783737 4.82023811 C-86.82396569 4.55197324 -64.2223747 3.79470885 -41.47705078 1.53442383 C-27.63780168 0.20152611 -13.89303844 -0.01484402 0 0 Z " fill="#000000" transform="translate(1587.875,531.8125)"/>
<path d="M0 0 C0.86625 -0.01675781 1.7325 -0.03351562 2.625 -0.05078125 C5 0.3125 5 0.3125 6.47265625 1.9140625 C6.97667969 2.37554688 7.48070312 2.83703125 8 3.3125 C10.56185703 2.99526408 10.56185703 2.99526408 13.4375 2 C26.89580912 -1.45855988 41.12695727 -1.09790926 54 4.3125 C54.76570312 4.62445312 55.53140625 4.93640625 56.3203125 5.2578125 C65.36570611 9.35059516 71.52192554 15.93906639 75.11328125 25.17578125 C77.71587403 34.38230989 76.44301899 43.9113933 72 52.3125 C64.40315048 63.5635303 52.87285284 67.74887341 40 70.3125 C34.68410523 71.02343022 29.35814332 71.23317352 24 71.3125 C24.5762915 71.66328613 25.15258301 72.01407227 25.74633789 72.37548828 C26.56352295 72.87290527 27.38070801 73.37032227 28.22265625 73.8828125 C29.60360474 74.72320068 29.60360474 74.72320068 31.01245117 75.58056641 C33.06384697 76.82949912 35.11478337 78.07918669 37.1652832 79.32958984 C42.60235716 82.64365536 48.04642018 85.94489085 53.5078125 89.21875 C55.06230103 90.15436768 55.06230103 90.15436768 56.64819336 91.10888672 C58.64100817 92.30787322 60.63652997 93.50237446 62.63500977 94.69189453 C63.54307373 95.23958496 64.4511377 95.78727539 65.38671875 96.3515625 C66.18295654 96.82803223 66.97919434 97.30450195 67.79956055 97.79541016 C70.18631381 99.44095379 72.09438079 101.12740421 74 103.3125 C74.63656938 107.05234509 74.25584708 108.82212644 72.5 112.1875 C69.63870565 114.6196002 67.96732421 114.81917751 64.27001953 114.70947266 C59.86444084 113.93904128 56.39207979 111.45793981 52.6875 109.0625 C51.38969604 108.25365356 51.38969604 108.25365356 50.06567383 107.4284668 C47.36581635 105.74035157 44.68236093 104.0282488 42 102.3125 C40.33414533 101.26043192 38.66750162 100.209612 37 99.16015625 C34.6099445 97.65429147 32.22128504 96.14647979 29.83740234 94.63085938 C22.63768596 90.05488433 15.33555178 85.6667084 8 81.3125 C8.01571045 82.29645752 8.0314209 83.28041504 8.04760742 84.29418945 C8.10190978 87.94498508 8.13635085 91.59574501 8.16479492 95.24682617 C8.17988094 96.82696536 8.2003525 98.40706269 8.22631836 99.98706055 C8.26271126 102.25840585 8.27972762 104.52919759 8.29296875 106.80078125 C8.30845261 107.50713211 8.32393646 108.21348297 8.33988953 108.9412384 C8.34156806 113.83372701 8.34156806 113.83372701 6.61425781 116.25488281 C4.50394738 117.63749999 3.07548037 117.74576226 0.5625 117.75 C-0.58025391 117.77900391 -0.58025391 117.77900391 -1.74609375 117.80859375 C-4.97859452 117.09710744 -5.99389111 115.94568365 -8 113.3125 C-8.40280083 110.43462709 -8.56445043 107.93389664 -8.54589844 105.05566406 C-8.55623611 104.22602646 -8.56657379 103.39638885 -8.57722473 102.54161072 C-8.60668628 99.80358481 -8.60815259 97.06629705 -8.609375 94.328125 C-8.6243544 92.42810656 -8.64108105 90.52810115 -8.65948486 88.62811279 C-8.70319755 83.63042609 -8.72316617 78.63291505 -8.73822021 73.6350708 C-8.75777716 68.53395179 -8.79974875 63.43302286 -8.83984375 58.33203125 C-8.91518832 48.32557941 -8.96545409 38.31917003 -9 28.3125 C-9.969375 28.18875 -10.93875 28.065 -11.9375 27.9375 C-13.4534375 27.628125 -13.4534375 27.628125 -15 27.3125 C-16.72370774 23.86508453 -16.50306672 20.08214661 -16 16.3125 C-14.12379387 13.81089182 -12.76108697 12.69304348 -10 11.3125 C-9.39923744 9.03850246 -9.0436846 6.76119424 -8.66015625 4.44140625 C-7.31047198 0.08887413 -3.97254369 0.01773457 0 0 Z " fill="#FBFBFB" transform="translate(922,630.6875)"/>
<path d="M0 0 C9.20844648 6.33860544 15.64057623 15.26904839 18.53515625 26.09375 C19.94736909 34.92304711 19.9263988 44.51344348 17 53 C16.76667969 53.7734375 16.53335937 54.546875 16.29296875 55.34375 C13.04602609 64.95114198 6.91450841 71.82423835 -2.0625 76.5 C-4.02466203 77.3726198 -6.00273579 78.21102546 -8 79 C-8.66515625 79.26554688 -9.3303125 79.53109375 -10.015625 79.8046875 C-21.34993495 83.40209892 -34.18507232 81.17785966 -45 77 C-46.69245221 76.04428912 -48.36938976 75.05777504 -50 74 C-49.99214478 74.96486328 -49.99214478 74.96486328 -49.98413086 75.94921875 C-49.93235516 83.30005739 -49.93970974 90.64922572 -50 98 C-50.00580078 98.87205078 -50.01160156 99.74410156 -50.01757812 100.64257812 C-50.04479517 102.8471588 -50.10741702 105.0467929 -50.1875 107.25 C-50.22230469 108.47203125 -50.25710938 109.6940625 -50.29296875 110.953125 C-51 114 -51 114 -53.36328125 116.390625 C-56.61794529 118.3771755 -58.24740895 118.62543184 -62 118 C-64.65698242 116.55718994 -64.65698242 116.55718994 -67 114 C-67.70937436 110.86105204 -67.58036611 107.78892172 -67.48828125 104.58496094 C-67.48097992 103.63162369 -67.47367859 102.67828644 -67.46615601 101.69606018 C-67.44713305 99.62631035 -67.4165565 97.55664193 -67.37582397 95.48720551 C-67.31198735 92.208041 -67.27942619 88.92988803 -67.25512695 85.65020752 C-67.18826514 77.50254276 -67.06747721 69.3558356 -66.94812012 61.20880127 C-66.84932223 54.32901636 -66.77116648 47.44959388 -66.7203064 40.56928253 C-66.68798069 37.34482365 -66.62543763 34.12185799 -66.56176758 30.89788818 C-66.5435937 28.90947759 -66.52683645 26.92105337 -66.51171875 24.93261719 C-66.48588715 24.04194046 -66.46005554 23.15126373 -66.43344116 22.2335968 C-66.43106648 16.58642473 -67.54543609 13.23071646 -70.91120911 8.66936111 C-72 7 -72 7 -72.125 4.25 C-70.57101368 1.14202736 -68.97660151 -0.21403909 -66 -2 C-63.0625 -2.6875 -63.0625 -2.6875 -60 -2 C-56.74737123 0.90496061 -54.40699842 4.38950237 -52 8 C-51.34 7.278125 -50.68 6.55625 -50 5.8125 C-36.51763005 -7.55625447 -16.37808501 -8.56946257 0 0 Z " fill="#FAFAFA" transform="translate(1337,667)"/>
<path d="M0 0 C2.55841046 1.80189124 4.81440508 3.7637456 7 6 C7.433125 5.05125 7.86625 4.1025 8.3125 3.125 C10 0 10 0 13 -2 C16.28860037 -2.3498511 18.27185185 -2.41514922 21.171875 -0.76171875 C23 1 23 1 23.42578125 3.09375 C23.22861573 7.2818175 22.96123783 11.43105541 22.4921875 15.59765625 C21.76520217 23.47565435 21.81396567 31.36780687 21.81469727 39.27270508 C21.81248471 41.95604734 21.79419575 44.63899436 21.77539062 47.32226562 C21.77246059 49.03645694 21.77047319 50.75065019 21.76953125 52.46484375 C21.75875298 53.66173073 21.75875298 53.66173073 21.74775696 54.88279724 C21.69402499 60.29152578 21.69402499 60.29152578 24 65 C27.50294871 66.71567661 27.50294871 66.71567661 31 68 C32 69 32 69 32.25 71.8125 C31.96921928 75.39245416 31.46669793 76.46853101 29 79 C24.09828861 80.14738855 19.91995472 79.47640512 15.5 77.1875 C13 75 13 75 11 72 C8.2511743 73.31359812 5.76953018 74.7925498 3.25 76.5 C-6.2690908 82.42104914 -17.53788429 82.18411678 -28.25 79.875 C-37.82999454 77.12343372 -43.58280298 72.54138112 -48.55859375 63.8828125 C-54.43628206 52.12743588 -55.14568349 36.9403479 -52.0859375 24.19140625 C-50.92946447 21.2629181 -49.64705339 18.67972972 -48 16 C-47.33097656 14.88818359 -47.33097656 14.88818359 -46.6484375 13.75390625 C-36.39619168 -1.39536202 -16.87285382 -7.80726965 0 0 Z " fill="#FBFBFB" transform="translate(614,668)"/>
<path d="M0 0 C6.48565563 5.92894699 10.75323077 13.76045791 11.16796875 22.56640625 C11.17441406 23.88511719 11.18085937 25.20382812 11.1875 26.5625 C11.19974609 27.23474609 11.21199219 27.90699219 11.22460938 28.59960938 C11.23562975 32.29878237 11.10685378 33.83971933 9 37 C5.7470597 38.08431343 3.30033539 38.15748034 -0.1237793 38.20532227 C-2.01540047 38.2352401 -2.01540047 38.2352401 -3.94523621 38.26576233 C-5.32156247 38.28274533 -6.69789002 38.29962419 -8.07421875 38.31640625 C-9.48241275 38.33698197 -10.89060065 38.3579786 -12.29878235 38.37937927 C-16.00260481 38.43453622 -19.70648241 38.48397354 -23.41040039 38.53222656 C-27.19096782 38.58248821 -30.97145529 38.63814992 -34.75195312 38.69335938 C-42.16790102 38.80086292 -49.58391545 38.90232514 -57 39 C-56.53873005 40.43474764 -56.07302161 41.86806876 -55.60546875 43.30078125 C-55.34660889 44.09911377 -55.08774902 44.89744629 -54.82104492 45.7199707 C-52.1599789 53.10971068 -46.7825826 57.33968843 -40.125 61.04296875 C-32.79130517 64.29729583 -24.333778 64.11248228 -16.8125 61.5625 C-12.79362368 59.7913606 -10.29422097 57.44829868 -7.3125 54.25 C-3.43626133 50.09297373 -3.43626133 50.09297373 0.8125 49.1875 C4.52871216 50.13476977 5.98082484 50.71884036 8 54 C8.16274138 58.31264654 7.21958281 61.14363561 4.625 64.5 C-2.46394419 72.0672344 -11.53610889 76.89588597 -21.92578125 77.30078125 C-23.72130012 77.31525063 -25.5169344 77.31894496 -27.3125 77.3125 C-28.19873047 77.32861328 -29.08496094 77.34472656 -29.99804688 77.36132812 C-41.28161251 77.3695583 -51.66543999 73.85008123 -60.04296875 66.11328125 C-63.99436759 61.82487611 -66.76978716 57.36903092 -69 52 C-69.2990625 51.3709375 -69.598125 50.741875 -69.90625 50.09375 C-74.12023597 39.94896896 -73.25735037 26.80077789 -69.328125 16.71484375 C-62.96309891 3.70398159 -53.81224231 -3.44729158 -40.375 -8.3125 C-25.95126032 -11.36142058 -11.85570798 -8.73794395 0 0 Z " fill="#FBFBFB" transform="translate(1088,671)"/>
<path d="M0 0 C3.78470328 3.57681974 6.22216258 7.5951591 8.41796875 12.28515625 C8.79050781 13.043125 9.16304687 13.80109375 9.546875 14.58203125 C10.70358574 18.17146546 10.78612627 21.61508431 10.79296875 25.34765625 C10.81746094 26.05470703 10.84195312 26.76175781 10.8671875 27.49023438 C10.88562382 30.76268094 10.76277799 32.82110247 8.784729 35.48321533 C5.71933511 37.81706333 3.91977071 37.80089009 0.08886719 37.83105469 C-1.83267181 37.86063263 -1.83267181 37.86063263 -3.79302979 37.89080811 C-5.18623817 37.89247114 -6.57944712 37.89370208 -7.97265625 37.89453125 C-9.40185418 37.90951526 -10.83103481 37.92624288 -12.26019287 37.94464111 C-16.0150228 37.98830306 -19.76961916 38.00831081 -23.5246582 38.02337646 C-27.35902714 38.04295199 -31.193144 38.08492139 -35.02734375 38.125 C-42.54550513 38.20028935 -50.06356066 38.25058813 -57.58203125 38.28515625 C-57.12397059 39.71878985 -56.66071727 41.15076494 -56.1953125 42.58203125 C-55.93790283 43.37963867 -55.68049316 44.17724609 -55.4152832 44.99902344 C-52.84779258 52.04326083 -47.87772263 56.43956907 -41.45703125 60.03515625 C-33.87940767 63.3297752 -25.22082818 63.54215598 -17.39453125 60.84765625 C-13.37565493 59.07651685 -10.87625222 56.73345493 -7.89453125 53.53515625 C-4.01829258 49.37812998 -4.01829258 49.37812998 0.23046875 48.47265625 C3.94668091 49.41992602 5.39879359 50.00399661 7.41796875 53.28515625 C7.50641397 58.06119816 6.40131606 61.22038378 3.125 64.7421875 C-6.34244735 73.29972 -15.34552415 76.82704149 -28.01953125 76.66015625 C-29.3353418 76.67755859 -29.3353418 76.67755859 -30.67773438 76.6953125 C-42.0910706 76.64484823 -52.37280463 72.96981028 -60.84765625 65.2109375 C-70.69623764 54.76049836 -73.20509837 42.70488644 -72.89453125 28.7421875 C-72.3379601 17.71512157 -66.81127199 7.99960727 -58.83203125 0.53515625 C-41.61316619 -13.57383774 -17.48354976 -13.49740133 0 0 Z " fill="#FAFAFA" transform="translate(1444.58203125,671.71484375)"/>
<path d="M0 0 C4.03801611 0.64608258 6.12431479 1.71364944 9.125 4.5 C9.95695783 11.21965941 7.79410568 17.55355325 6.0625 24 C5.78728516 25.06347656 5.51207031 26.12695312 5.22851562 27.22265625 C0.19390151 46.32099465 -5.9566021 65.08925758 -12.33666992 83.7734375 C-13.4457248 87.0241071 -14.54640653 90.27753292 -15.64648438 93.53125 C-18.69361578 102.5104042 -21.75236119 111.49084289 -25.15234375 120.34375 C-25.58667725 121.48005859 -26.02101074 122.61636719 -26.46850586 123.78710938 C-27.96114676 126.66616261 -29.07887052 127.90783024 -31.875 129.5 C-34.8125 130 -34.8125 130 -37.875 129.5 C-40.75 127.375 -40.75 127.375 -42.875 124.5 C-43.3422854 119.78183098 -42.32051153 116.33334843 -40.609375 111.95703125 C-40.2573703 111.04337044 -40.2573703 111.04337044 -39.89825439 110.11125183 C-39.14986575 108.1745417 -38.38792705 106.24352303 -37.625 104.3125 C-37.12795831 103.03617605 -36.63185669 101.75948558 -36.13671875 100.48242188 C-35.17292126 97.99700932 -34.20575005 95.51302207 -33.23632812 93.02978516 C-31.37817393 88.21178061 -29.61051445 83.36334474 -27.875 78.5 C-28.81533081 78.04886841 -28.81533081 78.04886841 -29.7746582 77.58862305 C-45.56338355 69.40520722 -54.77397811 40.09152807 -60.375 24.5 C-60.72570557 23.54480469 -61.07641113 22.58960938 -61.43774414 21.60546875 C-63.34930119 16.0929372 -65.1750446 10.35935592 -63.875 4.5 C-62.2579857 2.51359126 -61.46511977 1.62135528 -58.9375 1.1015625 C-58.256875 1.10929688 -57.57625 1.11703125 -56.875 1.125 C-55.8540625 1.11339844 -55.8540625 1.11339844 -54.8125 1.1015625 C-52.20617155 1.63754133 -51.55247298 2.42156092 -49.875 4.5 C-48.98101404 6.70989905 -48.18833319 8.9615346 -47.45703125 11.23046875 C-47.00715037 12.59778655 -46.55685821 13.96496907 -46.10620117 15.33203125 C-45.75892471 16.4005835 -45.75892471 16.4005835 -45.40463257 17.49072266 C-37.62729266 41.88874166 -37.62729266 41.88874166 -22.875 62.5 C-20.58305503 56.71366936 -18.88158899 50.98620351 -17.4375 44.9375 C-17.00352654 43.16123273 -16.56862278 41.3851925 -16.1328125 39.609375 C-15.92043945 38.74119141 -15.70806641 37.87300781 -15.48925781 36.97851562 C-14.33966437 32.3399335 -13.09597032 27.72802961 -11.83984375 23.1171875 C-11.15310128 20.54259832 -10.5000636 17.97288713 -9.87890625 15.3828125 C-9.71076416 14.7019458 -9.54262207 14.0210791 -9.36938477 13.31958008 C-8.90396278 11.43008175 -8.45154546 9.53739369 -8 7.64453125 C-6.42512935 3.24254906 -4.70047386 0.81747371 0 0 Z " fill="#FAFAFA" transform="translate(880.875,661.5)"/>
<path d="M0 0 C5.55904599 4.56573684 11.05708994 9.86633023 13 17 C13 20.875 13 20.875 12 24 C9.64311622 26.17558503 7.88808672 26.00844628 4.6875 26.25 C-0.27030977 24.56938652 -1.49831927 21.87888665 -4.24609375 17.58203125 C-7.90856899 12.1902804 -12.50198757 8.24961778 -19 7 C-27.13362071 6.06051533 -33.22939803 7.31174486 -40 12 C-45.70274326 16.83200181 -49.36634598 23.52419588 -50.22753906 30.96630859 C-50.97470211 41.2597719 -50.37638937 49.52951328 -43.75 57.8125 C-36.49711922 63.58183698 -30.14741995 64.85920202 -20.9296875 64.453125 C-14.12931995 63.66898719 -9.31473764 61.31473764 -4.5 56.5 C-2.31410964 52.8568494 -1.12672117 49.48998852 -0.0625 45.375 C1.45870809 40.54292723 1.45870809 40.54292723 4 39 C7.30972508 38.56829673 9.67002981 38.90674756 12.875 39.8125 C15.44488755 42.45797247 15.44137576 43.45122329 15.625 47.0625 C15.25210932 55.34286668 11.39497904 61.87915105 6 68 C3.5546875 69.9140625 3.5546875 69.9140625 0.875 71.625 C0.00617188 72.19476562 -0.86265625 72.76453125 -1.7578125 73.3515625 C-9.6289369 77.35350767 -17.17324554 78.53476997 -25.9375 78.4375 C-26.90389404 78.42920166 -27.87028809 78.42090332 -28.8659668 78.41235352 C-40.33644857 78.14023825 -48.642264 74.99861453 -57 67 C-65.81179854 57.36209535 -68.52824108 46.82512146 -68.27734375 33.9921875 C-67.65493803 21.15390842 -61.41737457 10.61015885 -52.3515625 1.859375 C-37.27909343 -10.05839124 -16.00181732 -10.33346197 0 0 Z " fill="#F9F9F9" transform="translate(1185,669)"/>
<path d="M0 0 C0.83893799 0.00829834 1.67787598 0.01659668 2.54223633 0.02514648 C8.61876766 0.19158623 13.50907077 0.83399983 18.5625 4.4375 C19.63371094 5.18386719 19.63371094 5.18386719 20.7265625 5.9453125 C25.8251131 9.93145206 28.80524529 14.19316723 30.5625 20.4375 C30.98989834 24.16197123 31.18166729 26.32699351 29.3515625 29.609375 C27.5625 31.4375 27.5625 31.4375 25.15234375 31.93359375 C24.27707031 31.91425781 23.40179687 31.89492188 22.5 31.875 C21.62214844 31.87371094 20.74429688 31.87242187 19.83984375 31.87109375 C19.08832031 31.72800781 18.33679688 31.58492187 17.5625 31.4375 C15.73549587 28.6969938 15.26413885 27.56560043 14.6875 24.5 C13.80136848 20.75626605 12.73234481 18.79224186 9.5625 16.4375 C4.9855092 13.74515247 -0.28172692 13.74567102 -5.4375 14.4375 C-8.54750511 15.76143792 -10.88866529 17.33983058 -12.4375 20.4375 C-13.09573607 25.7844302 -13.09573607 25.7844302 -11.01171875 30.453125 C-7.31317927 33.30419944 -3.28932172 34.69332025 1.0625 36.3125 C2.86850771 37.01353541 4.67320395 37.71795895 6.4765625 38.42578125 C7.34958008 38.76818848 8.22259766 39.1105957 9.12207031 39.46337891 C18.28958583 43.12268132 25.44470393 46.66029397 30.6875 55.2890625 C32.73991069 60.32846375 32.28835985 66.54867521 30.98046875 71.75390625 C28.16941479 78.31303215 22.61610505 82.38522599 16.38671875 85.5390625 C7.50372079 88.82224309 -3.9456242 89.08869173 -12.984375 86.37109375 C-20.79239259 82.73461855 -26.80105924 77.55693869 -31.4375 70.3125 C-32.58397193 67.01639321 -33.03813758 64.89116608 -32.4375 61.4375 C-30.12026028 58.92163973 -28.48671755 57.66296638 -25.12890625 56.94140625 C-21.00445079 57.70164695 -19.10884293 60.65425233 -16.5625 63.75 C-12.07111037 69.19035778 -8.44091962 72.52616286 -1.25 73.8359375 C4.4723326 73.76194182 9.37529722 72.62470278 13.5625 68.4375 C14.10781715 66.41182418 14.10781715 66.41182418 14.1875 64.125 C14.26226563 63.36574219 14.33703125 62.60648438 14.4140625 61.82421875 C12.94868644 57.71713264 9.32946939 56.30305764 5.5625 54.4375 C1.25312848 52.61818544 -3.15449775 51.09675639 -7.57226562 49.56445312 C-15.56325822 46.67508765 -23.78491093 42.88164251 -28.4375 35.4375 C-31.08326375 29.74910794 -31.50183979 23.3519846 -29.85546875 17.296875 C-26.8241062 10.26522123 -20.74322306 4.67915492 -13.73046875 1.734375 C-9.15444249 0.14041213 -4.81335761 -0.06129514 0 0 Z " fill="#FAFAFA" transform="translate(695.4375,660.5625)"/>
<path d="M0 0 C0.83893799 0.00829834 1.67787598 0.01659668 2.54223633 0.02514648 C8.61876766 0.19158623 13.50907077 0.83399983 18.5625 4.4375 C19.63371094 5.18386719 19.63371094 5.18386719 20.7265625 5.9453125 C25.8251131 9.93145206 28.80524529 14.19316723 30.5625 20.4375 C30.98989834 24.16197123 31.18166729 26.32699351 29.3515625 29.609375 C27.5625 31.4375 27.5625 31.4375 25.15234375 31.93359375 C24.27707031 31.91425781 23.40179687 31.89492188 22.5 31.875 C21.62214844 31.87371094 20.74429687 31.87242187 19.83984375 31.87109375 C19.08832031 31.72800781 18.33679687 31.58492187 17.5625 31.4375 C15.73549587 28.6969938 15.26413885 27.56560043 14.6875 24.5 C13.80136848 20.75626605 12.73234481 18.79224186 9.5625 16.4375 C4.9855092 13.74515247 -0.28172692 13.74567102 -5.4375 14.4375 C-8.54750511 15.76143792 -10.88866529 17.33983058 -12.4375 20.4375 C-13.09573607 25.7844302 -13.09573607 25.7844302 -11.01171875 30.453125 C-7.31317927 33.30419944 -3.28932172 34.69332025 1.0625 36.3125 C2.86850771 37.01353541 4.67320395 37.71795895 6.4765625 38.42578125 C7.34958008 38.76818848 8.22259766 39.1105957 9.12207031 39.46337891 C18.27586436 43.11720426 25.51414169 46.64806575 30.6875 55.32421875 C32.98628266 60.87618937 32.19866829 67.66718671 30.125 73.1875 C26.79497619 79.7073361 20.89695422 83.86037106 14.125 86.375 C3.07578472 89.09851952 -8.92648928 89.13398896 -18.87890625 83.28125 C-24.70953707 79.07963512 -30.02144669 74.38365327 -32.4375 67.4375 C-32.9375 64.3125 -32.9375 64.3125 -32.4375 61.4375 C-30.12026028 58.92163973 -28.48671755 57.66296638 -25.12890625 56.94140625 C-21.00445079 57.70164695 -19.10884293 60.65425233 -16.5625 63.75 C-12.07111037 69.19035778 -8.44091962 72.52616286 -1.25 73.8359375 C4.4723326 73.76194182 9.37529722 72.62470278 13.5625 68.4375 C14.10781715 66.41182418 14.10781715 66.41182418 14.1875 64.125 C14.26226563 63.36574219 14.33703125 62.60648438 14.4140625 61.82421875 C12.94884718 57.71758314 9.33058011 56.30013485 5.5625 54.4375 C2.14918015 53.00936806 -1.32061087 51.78327752 -4.8125 50.5625 C-23.37200261 43.71546128 -23.37200261 43.71546128 -28.5625 34.625 C-31.05154251 28.78770814 -31.55659511 23.4426825 -29.84375 17.3125 C-26.87034948 10.2644395 -20.72566303 4.67178115 -13.73046875 1.734375 C-9.15444249 0.14041213 -4.81335761 -0.06129514 0 0 Z " fill="#FAFAFA" transform="translate(1505.4375,660.5625)"/>
<path d="M0 0 C3.75825905 0.00320376 7.51576102 -0.02054135 11.27392578 -0.0456543 C13.67887272 -0.04792372 16.08382174 -0.04863245 18.48876953 -0.04760742 C19.6043927 -0.05681717 20.72001587 -0.06602692 21.8694458 -0.07551575 C33.14934496 -0.00812574 33.14934496 -0.00812574 37.47314453 4.31567383 C37.83404679 11.77432044 37.83404679 11.77432044 35.47314453 15.31567383 C26.15877293 18.42046436 14.18842608 15.94187331 4.47314453 15.31567383 C4.484021 16.25749512 4.49489746 17.19931641 4.50610352 18.16967773 C4.57370302 28.71133836 4.13552943 39.16861471 3.53564453 49.69067383 C2.91176382 60.83403218 2.41193706 71.95958114 2.25830078 83.12036133 C2.24346146 84.08295868 2.22862213 85.04555603 2.21333313 86.037323 C2.14332973 90.71159014 2.09490327 95.38456604 2.07885742 100.05932617 C2.05740018 101.75416018 2.03522152 103.44898525 2.01220703 105.14379883 C2.01732803 105.91488983 2.02244904 106.68598083 2.02772522 107.48043823 C1.96173672 111.00744776 1.75073077 112.95275896 -0.421875 115.79321289 C-2.84026593 117.54235298 -4.06781904 117.85620857 -7.02685547 117.81567383 C-7.77966797 117.82598633 -8.53248047 117.83629883 -9.30810547 117.84692383 C-12.44326338 117.09625222 -13.53506726 115.83630994 -15.52685547 113.31567383 C-16.02856445 110.21777344 -16.02856445 110.21777344 -16.02294922 106.46801758 C-16.0254921 105.76758331 -16.02803497 105.06714905 -16.03065491 104.3454895 C-16.03076676 101.98073116 -15.9986435 99.61766819 -15.96435547 97.25317383 C-15.95377946 95.57470803 -15.94336753 93.89624119 -15.93310547 92.21777344 C-15.67508103 66.57076022 -14.00129191 40.91543829 -12.52685547 15.31567383 C-13.51395508 15.38423584 -14.50105469 15.45279785 -15.51806641 15.5234375 C-29.8161387 16.50560498 -29.8161387 16.50560498 -35.77685547 16.62817383 C-37.60990234 16.68424805 -37.60990234 16.68424805 -39.47998047 16.74145508 C-42.52685547 16.31567383 -42.52685547 16.31567383 -44.42529297 14.51879883 C-46.02985034 11.30968408 -45.91189188 8.84517426 -45.52685547 5.31567383 C-43.76937784 2.5923934 -42.48646277 2.30669666 -39.28955078 1.59619141 C-37.89680231 1.42818548 -36.50153779 1.28037744 -35.10498047 1.14770508 C-34.32648743 1.06833206 -33.54799438 0.98895905 -32.74591064 0.90718079 C-21.85893285 -0.07529971 -10.92217947 -0.01952714 0 0 Z " fill="#FBFBFB" transform="translate(508.52685546875,631.684326171875)"/>
<path d="M0 0 C4.18392436 0.67241641 5.83120085 1.24671924 8.5 4.5625 C9.63665973 10.26947908 8.12935985 16.16570073 7.0078125 21.7734375 C6.35511456 25.35825542 6.03069795 28.9362506 5.74609375 32.56640625 C5.5 34.5625 5.5 34.5625 4.5 36.5625 C5.54800781 36.52769531 6.59601562 36.49289062 7.67578125 36.45703125 C9.05467147 36.42889063 10.43357902 36.40159076 11.8125 36.375 C12.50279297 36.34986328 13.19308594 36.32472656 13.90429688 36.29882812 C19.00018376 36.22497469 19.00018376 36.22497469 21.4609375 37.88671875 C23.07331636 40.48713428 22.81080746 42.57874842 22.5 45.5625 C20.5 48.5625 20.5 48.5625 17.5 49.5625 C15.10509014 49.63220052 12.70832309 49.64698003 10.3125 49.625 C9.04019531 49.61597656 7.76789062 49.60695313 6.45703125 49.59765625 C4.99330078 49.58025391 4.99330078 49.58025391 3.5 49.5625 C3.59446163 54.22183906 3.70074458 58.88071402 3.81738281 63.53955078 C3.85536235 65.12020743 3.89026565 66.70094142 3.921875 68.28173828 C3.42244058 83.9310012 3.42244058 83.9310012 9.5 97.5625 C12.5 98.22916667 12.5 98.22916667 15.5 97.5625 C18.32986235 95.22054495 18.65932341 92.99032813 19 89.5 C19.5 85.5625 19.5 85.5625 20.6875 83.5625 C23.48116734 82.0211663 25.36103655 82.12304512 28.5 82.5625 C31.375 84 31.375 84 33.5 86.5625 C34.72099966 91.96675069 33.57551029 96.86965184 30.91015625 101.63671875 C27.70547216 106.01319869 23.6741347 109.83778843 18.5 111.5625 C16.06637528 111.73491708 13.62679404 111.82915768 11.1875 111.875 C9.24423828 111.93107422 9.24423828 111.93107422 7.26171875 111.98828125 C1.69705599 111.35842846 -1.25129399 108.81120601 -5.125 104.9375 C-14.33538154 93.03211936 -13.81408818 76.47093021 -13.625 62.1875 C-13.61492858 60.85417355 -13.60581023 59.52083955 -13.59765625 58.1875 C-13.574406 54.97896559 -13.54173343 51.77083796 -13.5 48.5625 C-14.53713135 48.59077881 -14.53713135 48.59077881 -15.59521484 48.61962891 C-16.49965332 48.63429199 -17.4040918 48.64895508 -18.3359375 48.6640625 C-19.68244385 48.69234131 -19.68244385 48.69234131 -21.05615234 48.72119141 C-23.5 48.5625 -23.5 48.5625 -26.125 46.9375 C-27.89852706 43.87413508 -28.01924297 42.04884568 -27.5 38.5625 C-26.390625 36.890625 -26.390625 36.890625 -24.5 35.5625 C-21.36328125 35.26953125 -21.36328125 35.26953125 -17.8125 35.375 C-16.04326172 35.41560547 -16.04326172 35.41560547 -14.23828125 35.45703125 C-13.33464844 35.49183594 -12.43101562 35.52664063 -11.5 35.5625 C-11.45101562 34.65371094 -11.40203125 33.74492188 -11.3515625 32.80859375 C-11.10849667 28.72257339 -10.82274379 24.64290362 -10.5 20.5625 C-10.41927246 19.52198486 -10.41927246 19.52198486 -10.33691406 18.46044922 C-10.16809574 16.45036661 -9.95951955 14.44374856 -9.75 12.4375 C-9.63140625 11.23867188 -9.5128125 10.03984375 -9.390625 8.8046875 C-7.95425629 3.57580141 -5.36423988 0.86210998 0 0 Z " fill="#F8F8F8" transform="translate(769.5,635.4375)"/>
<path d="M0 0 C6.94335289 3.15896055 11.22446797 7.89633167 14.1328125 14.90234375 C16.54634504 24.0213468 16.36300633 36.66251992 11.99609375 45.1640625 C7.32347702 52.24715611 1.28900594 56.41732706 -7.00390625 58.1640625 C-17.3159413 58.88771408 -26.38757783 55.73461901 -35.00390625 50.1640625 C-37.66905277 47.49891598 -36.37085359 38.79559659 -36.40893555 35.05664062 C-36.43039134 33.47568756 -36.46434518 31.8948492 -36.51147461 30.31445312 C-36.98514891 14.28032536 -36.98514891 14.28032536 -31.65454102 7.77539062 C-29.50110017 5.67322976 -27.41864153 4.06999645 -24.75390625 2.6640625 C-23.47773437 1.96796875 -23.47773437 1.96796875 -22.17578125 1.2578125 C-15.49797492 -2.10511155 -7.19507869 -2.00227157 0 0 Z " fill="#020202" transform="translate(1324.00390625,676.8359375)"/>
<path d="M0 0 C5.11080055 3.83310041 7.81273312 7.76743077 9.5 13.875 C9.92672998 18.30617841 9.87020749 22.73765814 9.875 27.1875 C9.89949219 28.37279297 9.92398438 29.55808594 9.94921875 30.77929688 C9.97272891 37.84410096 9.5142973 43.8757643 5.5 49.875 C0.17435863 55.12312447 -5.93291356 55.80565605 -13.21875 56.0703125 C-19.33648548 55.70616158 -22.02017632 53.4220884 -26.25 49 C-32.71339819 40.02305807 -33.50298722 30.72340199 -32.5 19.875 C-30.26199164 11.31436714 -26.20607845 4.51952753 -18.68359375 -0.28515625 C-12.97815835 -2.47955448 -5.71006883 -1.83537927 0 0 Z " fill="#030303" transform="translate(609.5,680.125)"/>
<path d="M0 0 C5.08350757 3.21445249 8.98309895 7.63161455 10.46484375 13.55859375 C11.16273196 19.60695827 9.87391926 24.55861633 6.46484375 29.55859375 C0.14248388 35.19713101 -6.67754178 37.82004056 -15.140625 37.7890625 C-16.37103516 37.78712891 -17.60144531 37.78519531 -18.86914062 37.78320312 C-20.14080078 37.77095703 -21.41246094 37.75871094 -22.72265625 37.74609375 C-24.00591797 37.74544922 -25.28917969 37.74480469 -26.61132812 37.74414062 C-36.11333122 37.69920209 -36.11333122 37.69920209 -39.53515625 36.55859375 C-39.53515625 25.00859375 -39.53515625 13.45859375 -39.53515625 1.55859375 C-26.99888971 -4.70953952 -12.89328576 -6.24325085 0 0 Z " fill="#030303" transform="translate(969.53515625,649.44140625)"/>
<path d="M0 0 C3.33990267 0.84585989 4.75632309 1.96035559 7.09765625 4.53125 C7.76591307 8.03298695 7.56077406 11.46682904 7.40234375 15.015625 C7.37544464 16.06284729 7.34854553 17.11006958 7.3208313 18.18902588 C7.22855154 21.55429197 7.10100407 24.91718614 6.97265625 28.28125 C6.90786261 30.46868326 6.84534045 32.65618506 6.78515625 34.84375 C6.66021768 39.21016978 6.50982273 43.57459968 6.33886719 47.93945312 C6.16382312 52.4329768 6.04298137 56.92381646 5.95800781 61.41992188 C5.90304528 63.60807419 5.84803414 65.79622528 5.79296875 67.984375 C5.78224335 69.00239197 5.77151794 70.02040894 5.76046753 71.0692749 C5.71878952 72.47599457 5.71878952 72.47599457 5.67626953 73.91113281 C5.66089142 74.73381653 5.64551331 75.55650024 5.62966919 76.40411377 C5.09765625 78.53125 5.09765625 78.53125 3.20236206 80.29510498 C0.77811458 81.71892461 -0.67184047 81.93460536 -3.46484375 81.90625 C-4.61146484 81.91785156 -4.61146484 81.91785156 -5.78125 81.9296875 C-8.5859946 81.4028294 -9.25549651 80.88231635 -10.90234375 78.53125 C-11.17886687 75.75351844 -11.27437933 73.20546632 -11.23046875 70.4296875 C-11.2291394 69.61244705 -11.22781006 68.7952066 -11.22644043 67.95320129 C-11.21747405 65.27053284 -11.18595957 62.58871486 -11.15234375 59.90625 C-11.13771862 58.05770343 -11.12372619 56.20915175 -11.11035156 54.3605957 C-11.07078237 49.65868632 -11.00841111 44.95735775 -10.93945312 40.25579834 C-10.90391511 37.6466186 -10.87782657 35.03754508 -10.85546875 32.42822266 C-10.82123326 28.57128164 -10.7658688 24.71530739 -10.6907959 20.85894775 C-10.66527983 19.4387557 -10.64577301 18.01844223 -10.63244629 16.5980835 C-10.61134845 14.63149665 -10.56222649 12.6652701 -10.51171875 10.69921875 C-10.49077148 9.59860107 -10.46982422 8.4979834 -10.44824219 7.36401367 C-9.2882464 1.3445901 -5.78170078 0.09195548 0 0 Z " fill="#FCFCFC" transform="translate(1235.90234375,664.46875)"/>
<path d="M0 0 C4.96018101 3.549703 7.40659097 7.04973128 8.41015625 13.08203125 C8.43078125 14.29890625 8.45140625 15.51578125 8.47265625 16.76953125 C6.47265625 18.76953125 6.47265625 18.76953125 4.22006226 19.01004028 C2.81441513 19.00337845 2.81441513 19.00337845 1.38037109 18.99658203 C0.3194223 18.99643097 -0.74152649 18.99627991 -1.83462524 18.99612427 C-2.98361298 18.9858017 -4.13260071 18.97547913 -5.31640625 18.96484375 C-6.48996674 18.96201385 -7.66352722 18.95918396 -8.87265015 18.95626831 C-12.63265037 18.9450448 -16.39241514 18.91993617 -20.15234375 18.89453125 C-22.69661115 18.88450426 -25.24088227 18.87537793 -27.78515625 18.8671875 C-34.03263285 18.84509839 -40.27997148 18.81159949 -46.52734375 18.76953125 C-45.41110375 11.24565046 -42.08603103 7.27135882 -36.71484375 2.01953125 C-25.25014155 -6.07319972 -12.43506208 -7.14639503 0 0 Z " fill="#070707" transform="translate(1077.52734375,679.23046875)"/>
<path d="M0 0 C7.49900387 6.39104294 7.49900387 6.39104294 7.86328125 10.609375 C7.84007812 11.40988281 7.816875 12.21039062 7.79296875 13.03515625 C7.77492188 13.84339844 7.756875 14.65164063 7.73828125 15.484375 C7.71507812 16.09925781 7.691875 16.71414063 7.66796875 17.34765625 C-10.34639773 18.34746252 -28.2971378 18.46302561 -46.33203125 18.34765625 C-45.11299926 9.88476108 -41.1243749 5.55568354 -34.75 0.1171875 C-25.05984037 -6.97431866 -9.81260649 -6.95265083 0 0 Z " fill="#030303" transform="translate(1433.33203125,679.65234375)"/>
<path d="M0 0 C3.70390021 2.02666238 5.65363011 3.48044516 8 7 C8.7625943 11.65537221 8.39395811 15.19749274 6.3125 19.4375 C3.07915459 23.02039627 0.7681726 23.77427584 -3.9375 24.375 C-7.86684549 23.89385565 -9.92648237 22.44484357 -13 20 C-15.8288298 15.7567553 -15.65268001 11.98265471 -15 7 C-11.33070065 0.70977255 -7.11202755 -0.73572699 0 0 Z " fill="#F9F9F9" transform="translate(1239,632)"/>
<path d="M0 0 C11.28 0 11.28 0 15 3 C16.58894072 4.58894072 16.16998411 6.24801424 16.1875 8.4375 C16.20167969 9.24058594 16.21585938 10.04367187 16.23046875 10.87109375 C16 13 16 13 14 15 C14.46871403 19.1012478 15.83756544 23.04772249 17 27 C15.35 27 13.7 27 12 27 C11.73445313 26.36191406 11.46890625 25.72382812 11.1953125 25.06640625 C10.84210938 24.24011719 10.48890625 23.41382813 10.125 22.5625 C9.77695313 21.73878906 9.42890625 20.91507813 9.0703125 20.06640625 C8.1755063 17.84253285 8.1755063 17.84253285 6 17 C6 20.63 6 24.26 6 28 C4.02 28 2.04 28 0 28 C0 18.76 0 9.52 0 0 Z " fill="#181818" transform="translate(1039,931)"/>
<path d="M0 0 C2.92369431 3.05627233 3.40974613 5.26217282 3.375 9.4375 C3.25220686 14.27813493 2.5109137 17.4890863 -1 21 C-3.5 21.125 -3.5 21.125 -6 21 C-6.33 20.67 -6.66 20.34 -7 20 C-7.33 22.97 -7.66 25.94 -8 29 C-9.65 29 -11.3 29 -13 29 C-13 19.43 -13 9.86 -13 0 C-11.02 0 -9.04 0 -7 0 C-4.24438552 -1.37780724 -2.90228766 -0.92023755 0 0 Z " fill="#0F0F0F" transform="translate(1115,938)"/>
<path d="M0 0 C1.65 0 3.3 0 5 0 C5 9.24 5 18.48 5 28 C2.69 28 0.38 28 -2 28 C-3.65 22.72 -5.3 17.44 -7 12 C-7.33 16.95 -7.66 21.9 -8 27 C-9.32 27 -10.64 27 -12 27 C-12 18.42 -12 9.84 -12 1 C-10.02 1 -8.04 1 -6 1 C-3.87381298 5.73559836 -2.4573037 9.89943707 -1 15 C-0.67 10.05 -0.34 5.1 0 0 Z " fill="#161616" transform="translate(860,931)"/>
<path d="M0 0 C2.79469595 2.22142498 3.81629515 3.84663658 4.37890625 7.37890625 C4.58036052 11.73941651 4.43862435 14.28358022 2.125 18.0625 C-0.37124129 20.33848471 -1.47398089 20.91817481 -4.8125 21.4375 C-8 21 -8 21 -10.875 18.625 C-13.49744388 15.0520263 -13.6489973 11.67793062 -13.43359375 7.34375 C-12.82175407 4.03650851 -11.45903328 2.24205976 -9 0 C-5.77839187 -1.61080407 -3.42436421 -0.82657067 0 0 Z " fill="#131313" transform="translate(881,938)"/>
<path d="M0 0 C3.96 0 7.92 0 12 0 C12 8.58 12 17.16 12 26 C12.99 26.33 13.98 26.66 15 27 C15 27.99 15 28.98 15 30 C12.625 30.125 12.625 30.125 10 30 C7.36008732 27.36008732 7.69759203 26.02053704 7.5859375 22.3359375 C7.54726563 21.21445312 7.50859375 20.09296875 7.46875 18.9375 C7.4378125 17.761875 7.406875 16.58625 7.375 15.375 C7.33632813 14.19164062 7.29765625 13.00828125 7.2578125 11.7890625 C7.16331155 8.85953309 7.07775442 5.93001403 7 3 C5.35 3.33 3.7 3.66 2 4 C2 5.65 2 7.3 2 9 C2.99 9 3.98 9 5 9 C5 9.99 5 10.98 5 12 C3.68 12 2.36 12 1 12 C1 17.61 1 23.22 1 29 C-0.32 29 -1.64 29 -3 29 C-3 23.39 -3 17.78 -3 12 C-3.99 12 -4.98 12 -6 12 C-6 11.01 -6 10.02 -6 9 C-5.01 9 -4.02 9 -3 9 C-3.061875 8.071875 -3.12375 7.14375 -3.1875 6.1875 C-3 3 -3 3 0 0 Z " fill="#050505" transform="translate(900,929)"/>
<path d="M0 0 C1.9375 1.5625 1.9375 1.5625 3 4 C3.22886309 6.72034996 3.13702696 9.25946073 3 12 C-0.3 12 -3.6 12 -7 12 C-6.67 13.32 -6.34 14.64 -6 16 C-3.69 16 -1.38 16 1 16 C1 17.32 1 18.64 1 20 C-2.17878694 21.58939347 -4.4956772 21.41576711 -8 21 C-11.15403546 18.38282164 -12.6326009 16.80799032 -13.4453125 12.80859375 C-13.71801619 7.43633106 -12.55586941 4.18337578 -9 0 C-5.8168485 -1.59157575 -3.38676935 -0.77242108 0 0 Z " fill="#1D1D1D" transform="translate(1071,938)"/>
<path d="M0 0 C2.89060987 3.18708267 3.93131903 5.07280684 4.25 9.375 C4.1675 10.24125 4.085 11.1075 4 12 C0.37 12 -3.26 12 -7 12 C-6.67 13.32 -6.34 14.64 -6 16 C-4.88625 15.938125 -3.7725 15.87625 -2.625 15.8125 C-0.830625 15.9053125 -0.830625 15.9053125 1 16 C1.66 16.99 2.32 17.98 3 19 C-0.40728075 21.09678815 -3.03207421 21.4133256 -7 21 C-10.1359157 19.22015595 -10.84102736 18.47691793 -12 15 C-12.41277571 10.3165833 -12.56939214 6.26819158 -10.625 1.9375 C-7.40211482 -1.90517079 -4.64423572 -1.20109544 0 0 Z " fill="#1A1A1A" transform="translate(1133,938)"/>
<path d="M0 0 C1.65 0 3.3 0 5 0 C5 5.61 5 11.22 5 17 C6.32 17 7.64 17 9 17 C9.33 11.39 9.66 5.78 10 0 C11.65 0 13.3 0 15 0 C15 6.93 15 13.86 15 21 C13.02 20.67 11.04 20.34 9 20 C8.67 20.33 8.34 20.66 8 21 C3.60808068 21.4623073 3.60808068 21.4623073 1.35424805 19.7487793 C-0.32768211 17.5768547 -0.35082999 16.48900961 -0.29296875 13.76953125 C-0.28330078 12.96708984 -0.27363281 12.16464844 -0.26367188 11.33789062 C-0.23853516 10.50451172 -0.21339844 9.67113281 -0.1875 8.8125 C-0.17396484 7.96751953 -0.16042969 7.12253906 -0.14648438 6.25195312 C-0.11115799 4.16769616 -0.05735139 2.08376723 0 0 Z " fill="#141414" transform="translate(917,938)"/>
<path d="M0 0 C1.32 0 2.64 0 4 0 C4 5.61 4 11.22 4 17 C5.32 16.67 6.64 16.34 8 16 C8.33 10.72 8.66 5.44 9 0 C10.65 0 12.3 0 14 0 C14 6.93 14 13.86 14 21 C12.68 21 11.36 21 10 21 C9.67 20.34 9.34 19.68 9 19 C8.34 19.66 7.68 20.32 7 21 C4.5 21.25 4.5 21.25 2 21 C0 19 0 19 -0.22705078 17.02880859 C-0.21657715 16.24328613 -0.20610352 15.45776367 -0.1953125 14.6484375 C-0.18886719 13.79765625 -0.18242188 12.946875 -0.17578125 12.0703125 C-0.15902344 11.18085937 -0.14226563 10.29140625 -0.125 9.375 C-0.11597656 8.4778125 -0.10695313 7.580625 -0.09765625 6.65625 C-0.0740497 4.43723414 -0.0411231 2.21874923 0 0 Z " fill="#0C0C0C" transform="translate(985,938)"/>
<path d="M0 0 C0.66 0.66 1.32 1.32 2 2 C1.67 2.66 1.34 3.32 1 4 C-0.65 4 -2.3 4 -4 4 C-4 5.65 -4 7.3 -4 9 C-3.01 9 -2.02 9 -1 9 C-1 9.99 -1 10.98 -1 12 C-1.99 12 -2.98 12 -4 12 C-4 17.94 -4 23.88 -4 30 C-5.65 30 -7.3 30 -9 30 C-9 24.06 -9 18.12 -9 12 C-9.99 12 -10.98 12 -12 12 C-12 11.01 -12 10.02 -12 9 C-11.01 9 -10.02 9 -9 9 C-9.061875 8.071875 -9.12375 7.14375 -9.1875 6.1875 C-9 3 -9 3 -7.875 1.125 C-5.15781176 -0.50531294 -3.10347254 -0.33015665 0 0 Z " fill="#121212" transform="translate(946,929)"/>
<path d="M0 0 C0 1.32 0 2.64 0 4 C-1.65 4 -3.3 4 -5 4 C-5 5.65 -5 7.3 -5 9 C-3.68 9 -2.36 9 -1 9 C-1 9.99 -1 10.98 -1 12 C-2.32 12 -3.64 12 -5 12 C-5 17.94 -5 23.88 -5 30 C-6.65 30 -8.3 30 -10 30 C-10 24.06 -10 18.12 -10 12 C-10.66 12 -11.32 12 -12 12 C-12 11.01 -12 10.02 -12 9 C-11.01 9 -10.02 9 -9 9 C-9.061875 7.88625 -9.12375 6.7725 -9.1875 5.625 C-9.125625 4.42875 -9.06375 3.2325 -9 2 C-5.5647952 -0.29013653 -4.014669 -0.17842973 0 0 Z " fill="#121212" transform="translate(958,929)"/>
<path d="M0 0 C0.33 1.32 0.66 2.64 1 4 C-1.31 3.67 -3.62 3.34 -6 3 C-6 4.32 -6 5.64 -6 7 C-4.576875 7.433125 -4.576875 7.433125 -3.125 7.875 C0 9 0 9 2 11 C2.375 14.4375 2.375 14.4375 2 18 C0.4375 19.9375 0.4375 19.9375 -2 21 C-6.38939738 21.38503486 -8.28986601 21.47342266 -12 19 C-11.505 17.515 -11.505 17.515 -11 16 C-8.36 16.33 -5.72 16.66 -3 17 C-3.04768403 15.12119128 -3.04768403 15.12119128 -4 13 C-6.94236782 10.78831775 -6.94236782 10.78831775 -10 9 C-11 8 -11 8 -11.3125 5.125 C-11 2 -11 2 -9.4375 0.0625 C-6.03339271 -1.42134164 -3.56538192 -0.75421541 0 0 Z " fill="#131313" transform="translate(1150,938)"/>
<path d="M0 0 C0.99 0.66 1.98 1.32 3 2 C2.67 2.99 2.34 3.98 2 5 C0.02 5 -1.96 5 -4 5 C-2.6636586 9.00902419 -0.50572968 9.80891895 3 12 C3.33 12.33 3.66 12.66 4 13 C3.75 16.4375 3.75 16.4375 3 20 C-0.68717438 22.45811625 -2.64345704 22.31118164 -7 22 C-7.99 21.34 -8.98 20.68 -10 20 C-9.505 18.515 -9.505 18.515 -9 17 C-6.36 17.33 -3.72 17.66 -1 18 C-0.96474868 16.11341126 -0.96474868 16.11341126 -2 14 C-3.79503155 13.03837596 -5.59056545 12.07756985 -7.39453125 11.1328125 C-9 10 -9 10 -10.1875 7 C-10 4 -10 4 -8.4375 1.625 C-5.35734354 -0.42843764 -3.6380818 -0.46443597 0 0 Z " fill="#121212" transform="translate(1012,937)"/>
<path d="M0 0 C1.65 0 3.3 0 5 0 C5 1.65 5 3.3 5 5 C6.32 5 7.64 5 9 5 C9 5.99 9 6.98 9 8 C7.68 8 6.36 8 5 8 C5 12.62 5 17.24 5 22 C6.65 22.33 8.3 22.66 10 23 C9.67 23.99 9.34 24.98 9 26 C6.1875 26.25 6.1875 26.25 3 26 C0.36837547 23.56331062 0.01297625 22.1529467 -0.29296875 18.546875 C-0.25816406 17.29390625 -0.22335937 16.0409375 -0.1875 14.75 C-0.16042969 13.48671875 -0.13335938 12.2234375 -0.10546875 10.921875 C-0.07066406 9.95765625 -0.03585937 8.9934375 0 8 C-0.66 8 -1.32 8 -2 8 C-2 7.01 -2 6.02 -2 5 C-1.34 5 -0.68 5 0 5 C0 3.35 0 1.7 0 0 Z " fill="#0F0F0F" transform="translate(1019,933)"/>
<path d="M0 0 C0 1.32 0 2.64 0 4 C-2.97 3.505 -2.97 3.505 -6 3 C-6 7.62 -6 12.24 -6 17 C-4.02 16.67 -2.04 16.34 0 16 C0.33 17.32 0.66 18.64 1 20 C-2.12860495 21.56430248 -4.55602925 21.35627284 -8 21 C-10.4375 19.25 -10.4375 19.25 -12 16 C-12.83693483 10.28357718 -13.04001319 5.67032422 -9.9375 0.6875 C-6.16418844 -1.48014707 -4.13959424 -1.05519069 0 0 Z " fill="#121212" transform="translate(1089,938)"/>
<path d="M0 0 C1.65 0 3.3 0 5 0 C5.14592789 3.70791544 5.23427895 7.41508726 5.3125 11.125 C5.3753418 12.69507813 5.3753418 12.69507813 5.43945312 14.296875 C5.57761825 23.02891075 5.57761825 23.02891075 2.60546875 26.7421875 C0 29 0 29 -2 29 C-2.625 27.125 -2.625 27.125 -3 25 C-2.34 24.34 -1.68 23.68 -1 23 C-0.62904292 20.57753405 -0.62904292 20.57753405 -0.5859375 17.7734375 C-0.54726563 16.7421875 -0.50859375 15.7109375 -0.46875 14.6484375 C-0.4378125 13.56820312 -0.406875 12.48796875 -0.375 11.375 C-0.33632813 10.28703125 -0.29765625 9.1990625 -0.2578125 8.078125 C-0.16333753 5.38558835 -0.07777569 2.69306243 0 0 Z " fill="#121212" transform="translate(975,938)"/>
<path d="M0 0 C1.65 0 3.3 0 5 0 C5 6.93 5 13.86 5 21 C3.35 21 1.7 21 0 21 C0 14.07 0 7.14 0 0 Z " fill="#101010" transform="translate(1093,938)"/>
<path d="M0 0 C1.32 0 2.64 0 4 0 C4 5.61 4 11.22 4 17 C5.65 17.33 7.3 17.66 9 18 C8.34 18.99 7.68 19.98 7 21 C4.5 21.3125 4.5 21.3125 2 21 C0 19 0 19 -0.22705078 17.02880859 C-0.21657715 16.24328613 -0.20610352 15.45776367 -0.1953125 14.6484375 C-0.18886719 13.79765625 -0.18242188 12.946875 -0.17578125 12.0703125 C-0.15902344 11.18085937 -0.14226563 10.29140625 -0.125 9.375 C-0.11597656 8.4778125 -0.10695313 7.580625 -0.09765625 6.65625 C-0.0740497 4.43723414 -0.0411231 2.21874923 0 0 Z " fill="#050505" transform="translate(985,938)"/>
<path d="M0 0 C3.53571429 0.53571429 3.53571429 0.53571429 5 2 C5.1245486 3.64230364 5.17568524 5.29052276 5.1875 6.9375 C5.20167969 7.83339844 5.21585938 8.72929688 5.23046875 9.65234375 C5 12 5 12 3 14 C-0.53571429 13.46428571 -0.53571429 13.46428571 -2 12 C-2.1245486 10.35769636 -2.17568524 8.70947724 -2.1875 7.0625 C-2.20167969 6.16660156 -2.21585938 5.27070312 -2.23046875 4.34765625 C-2 2 -2 2 0 0 Z " fill="#E4E4E4" transform="translate(875,941)"/>
<path d="M0 0 C2.125 0.375 2.125 0.375 4 1 C4.02696365 2.79158489 4.04637917 4.58328473 4.0625 6.375 C4.07410156 7.37273438 4.08570313 8.37046875 4.09765625 9.3984375 C4 12 4 12 3 14 C1.35 13.67 -0.3 13.34 -2 13 C-2.05391993 11.20866022 -2.09275571 9.41686101 -2.125 7.625 C-2.14820313 6.62726562 -2.17140625 5.62953125 -2.1953125 4.6015625 C-2 2 -2 2 0 0 Z " fill="#F3F3F3" transform="translate(1109,941)"/>
<path d="M0 0 C0 8.25 0 16.5 0 25 C-0.33 25 -0.66 25 -1 25 C-1.06058594 23.86820313 -1.12117187 22.73640625 -1.18359375 21.5703125 C-1.26799917 20.08852855 -1.35264717 18.6067584 -1.4375 17.125 C-1.47681641 16.37863281 -1.51613281 15.63226562 -1.55664062 14.86328125 C-1.71573624 10.80013136 -1.71573624 10.80013136 -3 7 C-3.99 7 -4.98 7 -6 7 C-6 5.35 -6 3.7 -6 2 C-1.125 0 -1.125 0 0 0 Z " fill="#B8B8B8" transform="translate(908,931)"/>
<path d="M0 0 C2.97 0.495 2.97 0.495 6 1 C6 3.31 6 5.62 6 8 C4.02 8.33 2.04 8.66 0 9 C0 6.03 0 3.06 0 0 Z " fill="#E8E8E8" transform="translate(1044,935)"/>
<path d="M0 0 C2.0625 0.4375 2.0625 0.4375 4 1 C3.53199289 5.05606165 3.12046792 8.46588679 1 12 C0.34 12 -0.32 12 -1 12 C-1 1 -1 1 0 0 Z " fill="#0D0D0D" transform="translate(960,953)"/>
<path d="M0 0 C0.33 0 0.66 0 1 0 C1 2.64 1 5.28 1 8 C0.01 8 -0.98 8 -2 8 C-2.33 8.99 -2.66 9.98 -3 11 C-3 10.01 -3 9.02 -3 8 C-3.99 8 -4.98 8 -6 8 C-6 6.35 -6 4.7 -6 3 C-4.35 3 -2.7 3 -1 3 C-0.67 2.01 -0.34 1.02 0 0 Z " fill="#DADADA" transform="translate(948,930)"/>
<path d="M0 0 C2.0625 0.4375 2.0625 0.4375 4 1 C4.33 2.32 4.66 3.64 5 5 C3.35 5.33 1.7 5.66 0 6 C-0.38218767 4.34385343 -0.71395102 2.67542976 -1 1 C-0.67 0.67 -0.34 0.34 0 0 Z " fill="#242424" transform="translate(976,927)"/>
<path d="M0 0 C1.32 0 2.64 0 4 0 C4 1.65 4 3.3 4 5 C2.35 5 0.7 5 -1 5 C-0.67 3.35 -0.34 1.7 0 0 Z " fill="#F8F8F8" transform="translate(1127,941)"/>
<path d="M0 0 C2.475 0.495 2.475 0.495 5 1 C5 2.32 5 3.64 5 5 C3.35 5 1.7 5 0 5 C0 3.35 0 1.7 0 0 Z " fill="#F8F8F8" transform="translate(1064,941)"/>
<path d="M0 0 C1.65 0 3.3 0 5 0 C4.67 1.65 4.34 3.3 4 5 C2.68 5 1.36 5 0 5 C0 3.35 0 1.7 0 0 Z " fill="#0B0B0B" transform="translate(1093,928)"/>
</svg>
